<?xml version="1.0" encoding="UTF-8"?>
<svg version="1.1" xmlns="http://www.w3.org/2000/svg" width="256" height="256">
<path d="M0 0 C1.76548544 0.09233478 3.5330348 0.15260698 5.30078125 0.17578125 C34.58772573 0.80222692 57.60769602 7.9590527 78.69897461 29.21044922 C95.7018585 47.16059247 102.0816663 70.60408898 102.7265625 94.8125 C102.86107308 98.1287973 103.38843316 101.27029019 104 104.53125 C105.27177013 111.84306819 105.39768915 119.09445764 105.375 126.5 C105.37412384 127.20176361 105.37324768 127.90352722 105.37234497 128.6265564 C105.22368491 164.85897444 90.83163024 195.80402123 65.30639648 221.18164062 C49.41796684 236.44993466 30.05688812 246.03694464 9 252 C7.82179687 252.34160156 6.64359375 252.68320313 5.4296875 253.03515625 C-26.37642102 260.54978629 -62.46444463 254.23403772 -90.234375 237.4296875 C-119.29932955 219.05169316 -138.68946001 191.87760836 -148 159 C-148.34160156 157.82179687 -148.68320313 156.64359375 -149.03515625 155.4296875 C-156.56900248 123.54224532 -150.18713706 87.52449536 -133.359375 59.6953125 C-115.07087643 30.60545193 -87.82426745 11.29543449 -55 2 C-53.82179688 1.65839844 -52.64359375 1.31679688 -51.4296875 0.96484375 C-35.47266616 -2.80522173 -16.15971609 -2.37793659 0 0 Z " fill="#FBF7F1" transform="translate(151,1)"/>
<path d="M0 0 C1.76548544 0.09233478 3.5330348 0.15260698 5.30078125 0.17578125 C34.58772573 0.80222692 57.60769602 7.9590527 78.69897461 29.21044922 C95.7018585 47.16059247 102.0816663 70.60408898 102.7265625 94.8125 C102.86107308 98.1287973 103.38843316 101.27029019 104 104.53125 C105.27177013 111.84306819 105.39768915 119.09445764 105.375 126.5 C105.37412384 127.20176361 105.37324768 127.90352722 105.37234497 128.6265564 C105.22368491 164.85897444 90.83163024 195.80402123 65.30639648 221.18164062 C49.41796684 236.44993466 30.05688812 246.03694464 9 252 C7.82179687 252.34160156 6.64359375 252.68320313 5.4296875 253.03515625 C-26.37642102 260.54978629 -62.46444463 254.23403772 -90.234375 237.4296875 C-119.29932955 219.05169316 -138.68946001 191.87760836 -148 159 C-148.34160156 157.82179687 -148.68320313 156.64359375 -149.03515625 155.4296875 C-156.56900248 123.54224532 -150.18713706 87.52449536 -133.359375 59.6953125 C-115.07087643 30.60545193 -87.82426745 11.29543449 -55 2 C-53.82179688 1.65839844 -52.64359375 1.31679688 -51.4296875 0.96484375 C-35.47266616 -2.80522173 -16.15971609 -2.37793659 0 0 Z M-56.26953125 47.703125 C-58.00247924 49.43082628 -59.73594329 51.15801007 -61.46989441 52.88470459 C-65.08450365 56.48896007 -68.69161707 60.10051361 -72.29370117 63.71728516 C-76.88558364 68.32636606 -81.49752746 72.91476169 -86.11554432 77.4976387 C-89.69431364 81.05433903 -93.26119522 84.62277991 -96.82480431 88.194664 C-98.5196809 89.89035453 -100.21834771 91.58226626 -101.92103004 93.27011871 C-110.9251076 102.20771948 -119.17728798 110.62834205 -125 122 C-125.368405 122.71160278 -125.73681 123.42320557 -126.11637878 124.15637207 C-126.93074445 125.82562647 -127.65888672 127.5362954 -128.375 129.25 C-128.83648437 130.32765625 -129.29796875 131.4053125 -129.7734375 132.515625 C-136.40278662 151.34804352 -134.83334608 173.55959043 -126.57006836 191.54980469 C-123.44563003 198.01129873 -119.64593545 203.562786 -115 209 C-114.236875 210.010625 -113.47375 211.02125 -112.6875 212.0625 C-99.57643282 226.39320134 -80.6605523 235.43193719 -61.3046875 236.3359375 C-51.24965865 236.59827094 -41.55441183 236.48169245 -32 233 C-30.98292969 232.69255859 -30.98292969 232.69255859 -29.9453125 232.37890625 C-24.43849808 230.47633732 -20.56477125 226.1295425 -18 221 C-17.42068044 215.3293528 -17.83179671 211.82117893 -21 207 C-20.61627088 203.57770633 -19.27847796 201.90631404 -16.88059998 199.51983643 C-16.21450714 198.8496196 -15.54841431 198.17940277 -14.86213684 197.48887634 C-13.75946724 196.40238548 -13.75946724 196.40238548 -12.63452148 195.29394531 C-11.86384338 194.52282913 -11.09316528 193.75171295 -10.2991333 192.95722961 C-7.74683244 190.40702084 -5.18406526 187.86760582 -2.62109375 185.328125 C-0.85067101 183.56329668 0.9190911 181.7978054 2.68821716 180.03167725 C6.87238908 175.85779426 11.06318933 171.6906449 15.25724405 167.52669883 C20.50056909 162.32020051 25.73354257 157.10333608 30.96679688 151.88671875 C40.30290668 142.58279477 49.64819286 133.28814435 59 124 C59.59675537 124.28657471 60.19351074 124.57314941 60.80834961 124.8684082 C61.99956421 125.42274536 61.99956421 125.42274536 63.21484375 125.98828125 C63.99722412 126.35735596 64.77960449 126.72643066 65.58569336 127.10668945 C69.62479722 128.60118647 72.97040658 128.42893384 77 127 C83.79543001 123.24082595 86.20533735 118.12955264 88.30859375 110.8671875 C93.4931769 89.36727772 90.12797472 67.88322389 79 49 C67.30214569 30.4860731 50.19241516 18.08142573 28.8125 13.1875 C-6.79844924 6.87118484 -32.03332688 23.37669925 -56.26953125 47.703125 Z " fill="#E5E0DA" transform="translate(151,1)"/>
<path d="M0 0 C2.1590254 1.15358321 2.1590254 1.15358321 5.90234375 0.875 C7.01609375 0.215 8.12984375 -0.445 9.27734375 -1.125 C15.69684898 -4.50305425 23.40898106 -4.04926764 30.37109375 -2.6171875 C37.48929744 -0.23532703 42.245114 4.47484794 45.90234375 10.875 C48.5952951 17.84556361 49.6210867 25.70493513 46.7109375 32.765625 C45.27734375 35.375 45.27734375 35.375 43.80078125 37.65625 C42.62270548 39.90831018 42.62270548 39.90831018 43.65234375 42.46484375 C44.60105804 44.29408349 45.56149608 46.11724862 46.52734375 47.9375 C49.38305788 54.67405641 48.73608845 62.41191153 46.33984375 69.1875 C43.07280891 76.25473161 38.75809082 80.41008824 31.52734375 83.3125 C22.90560128 86.04507411 16.1970059 85.28086324 7.90234375 81.875 C7.05671875 81.400625 6.21109375 80.92625 5.33984375 80.4375 C1.82795982 79.62706525 -0.10062001 81.07275917 -3.1328125 82.83203125 C-8.37224588 85.61320165 -14.32038896 85.53394561 -20.09765625 84.875 C-28.25890877 82.34382893 -33.86280992 77.30492062 -38.19140625 70.0390625 C-40.91376517 64.06499709 -40.99213538 57.2854338 -40.09765625 50.875 C-38.94732877 48.31495746 -37.60623447 46.08253678 -36.08984375 43.7265625 C-34.82178959 41.8263681 -34.82178959 41.8263681 -35.59765625 39.25 C-36.09265625 38.46625 -36.58765625 37.6825 -37.09765625 36.875 C-40.9333905 29.79364447 -41.53082519 22.06060589 -39.37109375 14.24609375 C-36.14761831 6.50189056 -31.62647442 1.57096528 -24.09765625 -2.125 C-16.09946974 -4.68852132 -7.29822758 -4.03433694 0 0 Z " fill="#E4DFDB" transform="translate(168.09765625,28.125)"/>
<path d="M0 0 C5.5745252 8.3617878 4.4046815 20.81221642 4.375 30.5 C4.37412384 31.20176361 4.37324768 31.90352722 4.37234497 32.6265564 C4.22368491 68.85897444 -10.16836976 99.80402123 -35.69360352 125.18164062 C-51.58203316 140.44993466 -70.94311188 150.03694464 -92 156 C-93.17820312 156.34160156 -94.35640625 156.68320313 -95.5703125 157.03515625 C-120.23470721 162.8624583 -148.51247443 159.97490815 -172 151 C-169.00694427 150.12283571 -166.43589654 149.91379282 -163.32421875 150.0078125 C-134.2270421 150.62839301 -111.43147076 141.73968329 -90.30194092 121.5020752 C-85.9943968 117.31527492 -81.74178197 113.07359894 -77.4921875 108.828125 C-75.91535237 107.25773257 -74.33837418 105.68748378 -72.76126099 104.11737061 C-69.4715714 100.83959206 -66.18597553 97.55777216 -62.90283203 94.2734375 C-58.72289422 90.0932964 -54.52935396 85.92709727 -50.33215141 81.7643013 C-47.07533721 78.52986192 -43.82779311 75.28623295 -40.58267593 72.04006195 C-39.0415392 70.50126375 -37.49720874 68.96565646 -35.94945908 67.43350983 C-15.87338516 47.54104715 -4.88087613 27.90061107 0 0 Z " fill="#FECB1D" transform="translate(252,97)"/>
<path d="M0 0 C4.89445045 1.52093904 7.67491228 4.56528156 11.21875 8.1640625 C11.90710938 8.81632813 12.59546875 9.46859375 13.3046875 10.140625 C16.54574813 13.38168563 18.18998572 15.16067255 18.99609375 19.765625 C18.2887905 23.31484727 17.53771604 24.73589212 15.03125 27.2890625 C14.41636719 27.93359375 13.80148438 28.578125 13.16796875 29.2421875 C12.01257669 30.38026105 10.84223428 31.5035147 9.65234375 32.60546875 C8.10699628 34.06361265 8.10699628 34.06361265 7.71875 36.7265625 C8.76819778 42.28863574 12.9445165 45.85592625 17.03515625 49.578125 C18.34375 51.0390625 18.34375 51.0390625 18.96875 54.2265625 C18.07358619 59.68706175 15.18381269 62.23620972 11.34375 66.0390625 C10.69921875 66.70808594 10.0546875 67.37710938 9.390625 68.06640625 C3.85740063 73.75074809 3.85740063 73.75074809 -0.28125 74.5390625 C-5.92619362 73.70277456 -9.44532968 69.45148442 -13.19921875 65.35546875 C-14.73545045 63.75636133 -14.73545045 63.75636133 -17.78125 63.2890625 C-23.06514684 64.31175221 -25.1946435 67.07526465 -28.73828125 70.97265625 C-30.99291586 73.40178397 -32.04301332 73.92225551 -35.28125 74.5390625 C-40.43283267 73.77586507 -43.05004927 70.61752322 -46.65625 67.0390625 C-47.3265625 66.39453125 -47.996875 65.75 -48.6875 65.0859375 C-54.3441416 59.56839364 -54.3441416 59.56839364 -55.28125 54.9765625 C-54.4245438 49.57931347 -51.6689503 47.54513273 -47.72265625 43.95703125 C-45.17514433 41.59251641 -44.73116642 40.66250492 -44.31640625 37.2109375 C-44.75504461 33.11697943 -46.08108902 32.01502719 -49.09375 29.2890625 C-54.44427268 24.36557684 -54.44427268 24.36557684 -55.15625 19.91015625 C-54.43552066 14.33013455 -51.59516797 11.90968149 -47.65625 8.1015625 C-47.00785156 7.41771484 -46.35945313 6.73386719 -45.69140625 6.02929688 C-42.50552996 2.87180958 -40.04760382 0.59525316 -35.44140625 0.3203125 C-31.06864841 1.1506401 -29.87634146 2.09204423 -27.09375 5.4765625 C-24.33816504 8.45391542 -22.88750749 9.94169093 -19.09375 11.5390625 C-13.89761356 10.78326084 -11.25607015 7.67701634 -7.65625 4.0390625 C-3.46879668 0.05101172 -3.46879668 0.05101172 0 0 Z " fill="#314F87" transform="translate(95.65625,125.9609375)"/>
<path d="M0 0 C2.625 1.8125 2.625 1.8125 5.25 4.5625 C6.03375 5.305 6.8175 6.0475 7.625 6.8125 C10.98958949 6.51160175 12.8117623 5.04665613 15.25 2.8125 C19.93466357 -1.4425656 23.23007705 -1.6127125 29.5390625 -1.5078125 C39.06189872 -0.51936621 46.66055523 8.89317961 52.625 15.8125 C56.0503369 20.44963061 57.29959119 24.81465584 57.01171875 30.58203125 C55.879202 37.11402183 51.95342846 42.00313504 47.625 46.8125 C48.10710937 47.24820313 48.58921875 47.68390625 49.0859375 48.1328125 C54.32818198 53.07550015 56.35610203 56.42438557 56.9375 63.75 C57.10835839 69.940331 54.10586585 74.54951057 50.04296875 78.890625 C48.64320263 80.29170792 47.2327405 81.6821756 45.8125 83.0625 C45.11318359 83.76890625 44.41386719 84.4753125 43.69335938 85.203125 C38.82272427 90.01452881 34.79713562 93.50551913 27.75 94.1875 C19.70432939 93.81969791 14.29774367 90.2902431 8.625 84.8125 C8.11710937 85.29460937 7.60921875 85.77671875 7.0859375 86.2734375 C1.34261503 91.54352741 -3.20760169 94.43249811 -11.31933594 94.1875 C-18.52061032 92.87382334 -24.32256802 86.35707085 -29.25 81.375 C-29.91257812 80.73240234 -30.57515625 80.08980469 -31.2578125 79.42773438 C-36.29810289 74.38232174 -38.63334454 70.09180059 -38.75 62.8125 C-38.6428112 58.03902555 -37.49516222 55.52296318 -34.375 51.8125 C-33.91996094 51.25304687 -33.46492188 50.69359375 -32.99609375 50.1171875 C-31.81039118 48.6646174 -30.59527296 47.23615178 -29.375 45.8125 C-29.85710938 45.29300781 -30.33921875 44.77351563 -30.8359375 44.23828125 C-36.21220497 38.30244309 -38.50977803 34.40727658 -38.8359375 26.38671875 C-37.4875309 18.85621072 -32.84033457 13.66459107 -27.5 8.5 C-26.90058594 7.89349609 -26.30117188 7.28699219 -25.68359375 6.66210938 C-18.17389175 -0.74170746 -10.29367166 -3.62184744 0 0 Z M20.5625 12 C19.881875 12.64324219 19.20125 13.28648437 18.5 13.94921875 C17.88125 14.56410156 17.2625 15.17898437 16.625 15.8125 C13.65443367 18.71061349 12.51649824 19.72677902 8.375 20.125 C3.53720155 18.43177054 1.34054824 15.65247424 -1.87109375 11.74609375 C-4.68229996 9.57519348 -6.68764858 9.00585706 -10.25024414 9.21850586 C-14.59426711 10.43291559 -17.34994609 13.68456044 -20.375 16.875 C-21.05433594 17.53177734 -21.73367187 18.18855469 -22.43359375 18.86523438 C-25.62600453 22.12509046 -27.22809294 23.96221972 -28.01953125 28.54296875 C-27.31956904 32.09368613 -26.56899354 33.50930162 -24.0625 36.0625 C-23.44761719 36.70703125 -22.83273438 37.3515625 -22.19921875 38.015625 C-21.04382669 39.15369855 -19.87348428 40.2769522 -18.68359375 41.37890625 C-17.375 42.8125 -17.375 42.8125 -16.75 45.5 C-17.79944778 51.06207324 -21.9757665 54.62936375 -26.06640625 58.3515625 C-27.67330314 59.89497339 -27.67330314 59.89497339 -28 63 C-27.10483619 68.46049925 -24.21506269 71.00964722 -20.375 74.8125 C-19.40820312 75.81603516 -19.40820312 75.81603516 -18.421875 76.83984375 C-14.28706804 81.25072812 -14.28706804 81.25072812 -8.75 83.3125 C-3.10505638 82.47621206 0.41407968 78.22492192 4.16796875 74.12890625 C5.625 72.8125 5.625 72.8125 8.75 72.0625 C14.03389684 73.08518971 16.1633935 75.84870215 19.70703125 79.74609375 C21.96166586 82.17522147 23.01176332 82.69569301 26.25 83.3125 C31.40158267 82.54930257 34.01879927 79.39096072 37.625 75.8125 C38.2953125 75.16796875 38.965625 74.5234375 39.65625 73.859375 C44.17110698 69.5364506 44.17110698 69.5364506 46.25 63.75 C45.3932938 58.35275097 42.6377003 56.31857023 38.69140625 52.73046875 C36.14389433 50.36595391 35.69991642 49.43594242 35.28515625 45.984375 C35.72379461 41.89041693 37.04983902 40.78846469 40.0625 38.0625 C44.45706727 34.14605807 44.45706727 34.14605807 46.1328125 28.6796875 C45.39852923 23.08783802 42.48305329 20.71170405 38.5 16.9375 C37.83484375 16.26203125 37.1696875 15.5865625 36.484375 14.890625 C33.52768907 12.00350815 31.31729429 10.05718303 27.38671875 8.66796875 C23.97185852 8.84668138 22.96112015 9.61123045 20.5625 12 Z " fill="#E2DFDB" transform="translate(68.375,117.1875)"/>
<path d="M0 0 C0.33 0.66 0.66 1.32 1 2 C1.89380371 2.43795898 1.89380371 2.43795898 2.80566406 2.88476562 C5.39519966 4.20085359 7.05358062 5.7946645 9.109375 7.84375 C9.86347656 8.59527344 10.61757813 9.34679688 11.39453125 10.12109375 C12.17183594 10.90613281 12.94914062 11.69117188 13.75 12.5 C14.54277344 13.28503906 15.33554687 14.07007813 16.15234375 14.87890625 C17.27576172 16.00619141 17.27576172 16.00619141 18.421875 17.15625 C19.10862305 17.84525391 19.79537109 18.53425781 20.50292969 19.24414062 C22 21 22 21 22 23 C23.32 23.66 24.64 24.32 26 25 C26 29 26 29 23.66430664 31.7421875 C22.58917869 32.7963279 21.5036633 33.83993748 20.41015625 34.875 C19.8322081 35.44017334 19.25425995 36.00534668 18.65879822 36.58764648 C16.80261286 38.40157319 14.93405201 40.20194141 13.0625 42 C2.35721479 52.30502154 -7.9381098 62.48408337 -14.375 76.125 C-14.70387207 76.80167725 -15.03274414 77.47835449 -15.37158203 78.17553711 C-17.81442805 83.31950092 -19.63388259 88.47003157 -21 94 C-21.3403125 94.969375 -21.680625 95.93875 -22.03125 96.9375 C-23.66427574 102.6103966 -23.47159277 108.57926147 -23.625 114.4375 C-23.66367187 115.64599609 -23.70234375 116.85449219 -23.7421875 118.09960938 C-23.83599458 121.06625817 -23.92169246 124.03290836 -24 127 C-26.30118275 123.54822587 -27.10993611 120.21961988 -28.0625 116.25 C-28.23587891 115.5590625 -28.40925781 114.868125 -28.58789062 114.15625 C-36.49303606 81.92990997 -30.37332601 46.04168907 -13.41796875 17.75390625 C-9.55254005 11.5913268 -5.15975274 5.15975274 0 0 Z " fill="#FECA1E" transform="translate(31,43)"/>
<path d="M0 0 C2.11267423 0.0107827 4.22450852 0.00000648 6.3371582 -0.01269531 C13.46928434 -0.01896835 20.02642395 0.32916853 26.91723633 2.26074219 C26.91723633 2.59074219 26.91723633 2.92074219 26.91723633 3.26074219 C25.2852832 3.60685547 25.2852832 3.60685547 23.62036133 3.95996094 C7.30738356 7.53104446 -7.25276521 13.20249872 -20.12963867 24.17871094 C-20.68705246 24.65246658 -21.24446625 25.12622223 -21.81877136 25.61433411 C-28.33441475 31.2319953 -34.3632605 37.32166834 -40.39526367 43.44824219 C-41.53996568 44.60301536 -42.68514626 45.75731433 -43.83081055 46.91113281 C-46.58697509 49.6889343 -49.33670322 52.47295317 -52.08276367 55.26074219 C-56.08793763 53.65701071 -58.75987347 50.83960233 -61.72338867 47.81542969 C-62.25043396 47.2855545 -62.77747925 46.75567932 -63.32049561 46.20974731 C-64.99602042 44.52306393 -66.66444089 42.82954655 -68.33276367 41.13574219 C-69.47032218 39.9881483 -70.60833803 38.84100757 -71.74682617 37.69433594 C-74.53079832 34.88836081 -77.30842127 32.07623755 -80.08276367 29.26074219 C-60.12662011 8.74758335 -27.7195579 -0.16817373 0 0 Z " fill="#FECA1E" transform="translate(126.082763671875,-0.2607421875)"/>
<path d="M0 0 C5.14134227 2.86487552 7.9374383 6.54500146 9.64453125 12.16015625 C10.39150226 18.24263448 8.92016048 22.91130194 5.40234375 27.93359375 C4.08203125 29.59765625 4.08203125 29.59765625 1.64453125 32.16015625 C0.98453125 32.16015625 0.32453125 32.16015625 -0.35546875 32.16015625 C-0.35546875 32.82015625 -0.35546875 33.48015625 -0.35546875 34.16015625 C-1.99898332 35.52192547 -3.67069531 36.84977691 -5.35546875 38.16015625 C-6.11859375 38.98515625 -6.88171875 39.81015625 -7.66796875 40.66015625 C-11.50049173 44.2252939 -15.30806767 46.94322261 -20.66015625 47.32421875 C-25.82576442 46.95897373 -29.36697506 45.59211593 -33.35546875 42.16015625 C-37.43749344 36.75423166 -38.80738317 32.93887259 -38.35546875 26.16015625 C-36.2120355 19.09994958 -31.62825093 14.90142403 -26.41796875 9.84765625 C-25.60650391 9.03748047 -24.79503906 8.22730469 -23.95898438 7.39257812 C-16.78948528 0.3289453 -10.34173972 -3.6873533 0 0 Z " fill="#E3DFDB" transform="translate(166.35546875,124.83984375)"/>
<path d="M0 0 C3.81710835 2.51766721 6.77349892 4.84664865 8.9375 8.9375 C9.93583991 14.08046318 9.71571449 19.10306425 7.4375 23.875 C3.91485164 28.19024425 0.34592086 30.31836737 -5.1484375 31.31640625 C-10.2727081 31.62072117 -13.21439135 30.17340954 -17.0625 26.9375 C-21.3647759 22.17011319 -22.42532503 18.50002705 -22.34375 12.21875 C-21.75733612 7.46228189 -18.92266535 4.71374678 -15.5 1.625 C-10.56636455 -1.79059377 -5.61161466 -1.94688672 0 0 Z " fill="#48B8FB" transform="translate(196.0625,36.0625)"/>
<path d="M0 0 C5.1064933 2.34879673 8.35259221 5.16221567 10.91015625 10.27734375 C11.50073369 15.955973 11.2038653 20.44657047 7.91015625 25.27734375 C4.02515093 29.19419337 0.78337067 31.08684737 -4.77734375 31.65234375 C-9.82582004 31.57782749 -13.3253932 29.53121365 -17.08984375 26.27734375 C-20.39983663 21.93297809 -20.77549195 17.37207327 -20.64453125 12.0390625 C-19.68815343 7.27737857 -16.786631 4.27534804 -13.08984375 1.27734375 C-8.78195074 -1.24940119 -4.81376089 -1.66457152 0 0 Z " fill="#FA3C4C" transform="translate(159.08984375,35.72265625)"/>
<path d="M0 0 C3.46236126 2.39067801 5.74528805 5.0530761 7.625 8.8125 C8.15440021 14.12385952 8.28863629 18.48522741 5.875 23.3125 C2.42532043 27.1454773 -0.35722888 29.44319235 -5.609375 30.0859375 C-11.15209619 30.30971196 -14.67733285 29.86862108 -18.96875 26.21484375 C-22.70541976 22.48855363 -23.59683375 19.6584665 -23.875 14.4375 C-23.71840315 8.90441139 -22.31777612 5.65670672 -18.375 1.8125 C-13.22348571 -2.7502698 -6.16507759 -2.16919397 0 0 Z " fill="#48B8FB" transform="translate(197.375,72.1875)"/>
<path d="M0 0 C4.00517396 1.60373148 6.6771098 4.42113986 9.640625 7.4453125 C10.43119293 8.24012527 10.43119293 8.24012527 11.23773193 9.05099487 C12.91325675 10.73767825 14.58167722 12.43119564 16.25 14.125 C17.38755851 15.27259388 18.52557436 16.41973461 19.6640625 17.56640625 C22.44803465 20.37238137 25.2256576 23.18450464 28 26 C24.66883385 29.95374187 21.31571444 33.81041857 17.625 37.4375 C16.93664062 38.11683594 16.24828125 38.79617187 15.5390625 39.49609375 C15.03117187 39.99238281 14.52328125 40.48867187 14 41 C9.48265708 38.35570171 6.49315163 35.42360047 3.13671875 31.43359375 C0.43509931 28.35661219 -2.41918725 25.45839837 -5.3125 22.5625 C-5.84053223 22.03011719 -6.36856445 21.49773438 -6.91259766 20.94921875 C-9.6916253 18.12465589 -9.6916253 18.12465589 -13 16 C-12.42308522 12.83145253 -11.58353113 11.21773541 -9.27734375 8.984375 C-8.73916016 8.45585938 -8.20097656 7.92734375 -7.64648438 7.3828125 C-7.08251953 6.84398437 -6.51855469 6.30515625 -5.9375 5.75 C-5.36966797 5.19570313 -4.80183594 4.64140625 -4.21679688 4.0703125 C-2.81787531 2.70665786 -1.40980886 1.35239583 0 0 Z " fill="#557BFE" transform="translate(45,29)"/>
<path d="M0 0 C4.294389 1.57033628 7.72994651 3.96434935 10 8 C11.92023483 13.06243729 11.57713766 18.27730587 9.4375 23.1875 C7.12587125 27.33554463 4.56517844 29.61398757 0 31 C-5.01943518 31.76365416 -8.77223531 31.59114596 -13.375 29.375 C-17.07694899 26.02561758 -19.63691157 23.48604424 -20.3828125 18.37890625 C-20.56800392 13.82937048 -20.33813423 10.71528396 -18.375 6.5625 C-12.78676003 0.53308319 -8.08628573 -1.27947559 0 0 Z " fill="#FA3C4B" transform="translate(159,71)"/>
<path d="M0 0 C1.9375 1.125 1.9375 1.125 3 3 C3.3399301 6.41306215 3.42828187 8.33294215 1.55053711 11.25756836 C-0.6342821 13.50618946 -2.82518699 15.74089905 -5.0625 17.9375 C-5.81466797 18.72962891 -6.56683594 19.52175781 -7.34179688 20.33789062 C-12.96318971 25.94954945 -12.96318971 25.94954945 -17.93359375 26.19140625 C-21 25 -21 25 -23 22 C-23.59765625 19.3359375 -23.59765625 19.3359375 -23 16 C-20.80205907 12.87503113 -18.16782754 10.28556587 -15.4375 7.625 C-14.73302734 6.88894531 -14.02855469 6.15289062 -13.30273438 5.39453125 C-8.99522723 1.11481448 -6.38867855 -1.12931187 0 0 Z " fill="#335088" transform="translate(162,135)"/>
<path d="M0 0 C0.66 0.33 1.32 0.66 2 1 C-0.64 3.64 -3.28 6.28 -6 9 C-1.03805145 14.99500997 4.3476624 20.46427037 9.875 25.9375 C10.75414063 26.81212891 11.63328125 27.68675781 12.5390625 28.58789062 C14.6904346 30.72757048 16.84411792 32.86486597 19 35 C17.35 36.98 15.7 38.96 14 41 C9.48265708 38.35570171 6.49315163 35.42360047 3.13671875 31.43359375 C0.43509931 28.35661219 -2.41918725 25.45839837 -5.3125 22.5625 C-5.84053223 22.03011719 -6.36856445 21.49773438 -6.91259766 20.94921875 C-9.6916253 18.12465589 -9.6916253 18.12465589 -13 16 C-12.42308522 12.83145253 -11.58353113 11.21773541 -9.27734375 8.984375 C-8.73916016 8.45585938 -8.20097656 7.92734375 -7.64648438 7.3828125 C-7.08251953 6.84398437 -6.51855469 6.30515625 -5.9375 5.75 C-5.36966797 5.19570313 -4.80183594 4.64140625 -4.21679688 4.0703125 C-2.81787531 2.70665786 -1.40980886 1.35239583 0 0 Z " fill="#5B47C5" transform="translate(45,29)"/>
<path d="M0 0 C3.59658804 1.88003466 6.35625011 4.14105654 8.75 7.4375 C9.125 10.3125 9.125 10.3125 8.75 12.4375 C3.38560356 15.11969822 -0.26006953 15.7527595 -6.25 15.4375 C-7.2971725 11.52993012 -7.15220382 9.0331026 -5.9375 5.1875 C-5.67324219 4.31609375 -5.40898438 3.4446875 -5.13671875 2.546875 C-3.90204344 -0.39023807 -3.08615573 -0.77153893 0 0 Z " fill="#1F3F72" transform="translate(59.25,172.5625)"/>
<path d="M0 0 C3.08960561 1.48904559 3.64703941 3.76270738 4.83984375 6.88671875 C5.39818988 9.59445043 5.65171872 12.1118745 5.83984375 14.88671875 C4.83984375 15.88671875 4.83984375 15.88671875 1.21484375 16.13671875 C-3.20364544 16.1048163 -6.23587135 14.8488612 -10.16015625 12.88671875 C-10.49704611 9.68626509 -10.44098101 8.2834178 -8.55078125 5.61328125 C-7.49117188 4.57300781 -7.49117188 4.57300781 -6.41015625 3.51171875 C-5.36601563 2.44824219 -5.36601563 2.44824219 -4.30078125 1.36328125 C-2.16015625 -0.11328125 -2.16015625 -0.11328125 0 0 Z " fill="#1F3F72" transform="translate(97.16015625,172.11328125)"/>
<path d="M0 0 C4.87440007 0.48744001 9.33909281 1.57319168 14 3 C14.7578125 4.69921875 14.7578125 4.69921875 15 7 C13.3046875 9.39453125 13.3046875 9.39453125 10.875 11.8125 C9.69550781 13.02873047 9.69550781 13.02873047 8.4921875 14.26953125 C6 16 6 16 3.1953125 15.76171875 C2.47085938 15.51035156 1.74640625 15.25898438 1 15 C-2.67561762 5.46831364 -2.67561762 5.46831364 -1 1 C-0.67 0.67 -0.34 0.34 0 0 Z " fill="#1F3F72" transform="translate(54,138)"/>
<path d="M0 0 C0.66 0.66 1.32 1.32 2 2 C1.828125 4.2421875 1.828125 4.2421875 1.25 6.875 C1.06953125 7.73867187 0.8890625 8.60234375 0.703125 9.4921875 C0.03785668 11.86497785 -0.81756385 13.84556125 -2 16 C-6.29475923 15.49517742 -8.33731829 14.23082796 -11.375 11.1875 C-12.08398438 10.50042969 -12.79296875 9.81335938 -13.5234375 9.10546875 C-15 7 -15 7 -14.9921875 4.84765625 C-14 3 -14 3 -12.109375 1.953125 C-3.68303571 -0.55803571 -3.68303571 -0.55803571 0 0 Z " fill="#1F3F72" transform="translate(101,138)"/>
</svg>
